<?xml version="1.0" standalone="no"?>
<!DOCTYPE svg PUBLIC "-//W3C//DTD SVG 20010904//EN"
 "http://www.w3.org/TR/2001/REC-SVG-20010904/DTD/svg10.dtd">
<svg version="1.0" xmlns="http://www.w3.org/2000/svg"
 width="536.000000pt" height="192.000000pt" viewBox="0 0 536.000000 192.000000"
 preserveAspectRatio="xMidYMid meet">
<metadata>
Created by potrace 1.16, written by Peter Selinger 2001-2019
</metadata>
<g transform="translate(0.000000,192.000000) scale(0.100000,-0.100000)"
fill="#000000" stroke="none">
<path d="M494 1476 c-137 -92 -222 -290 -194 -449 18 -95 42 -147 131 -285
107 -164 119 -196 119 -320 0 -53 5 -104 10 -112 7 -10 10 34 10 133 0 170 2
163 -119 356 -88 141 -105 195 -99 315 5 83 9 100 43 164 35 67 140 182 166
182 5 0 9 11 9 25 0 33 -16 32 -76 -9z"/>
<path d="M530 1305 l-35 -36 18 -30 c21 -37 13 -56 -34 -78 -33 -16 -34 -17
-34 -80 0 -64 0 -65 32 -73 45 -12 58 -38 35 -77 l-17 -31 37 -36 36 -37 0 74
c0 101 -12 135 -49 148 -25 9 -30 15 -27 38 2 20 9 29 26 31 33 5 44 36 48
134 2 48 2 88 1 88 -2 0 -19 -16 -37 -35z"/>
</g>
</svg>
